#!OML:ASF E:\Mandelcareful walks\Project 1\Capture day 1\Session 1\Subject1.ASF
:FULLY-SPECIFIED
:DEGREES
520
root -13.0706 16.298 -8.95115 346.922 124.775 -26.7205
lowerback 5.40825 -1.68364 -5.00725
upperback 3.74147 -2.30028 2.77356
thorax 1.16327 -1.22159 5.79034
lowerneck -25.8612 -4.47856 -8.40469
upperneck 35.4741 -3.33206 3.92268
head 17.7588 -1.56607 2.62357
rclavicle -6.67916e-014 -9.54166e-015
rhumerus -50.2684 5.51757 -79.1228
rradius 47.6214
rwrist -14.241
rhand -4.58242 -20.9446
rfingers 7.12502
rthumb 21.1946 -49.806
lclavicle -6.67916e-014 -9.54166e-015
lhumerus -46.02 -23.3078 91.5662
lradius 77.4823
lwrist 24.4271
lhand -26.5108 -17.1995
lfingers 7.12502
lthumb 0.0524374 12.7802
rfemur -34.1294 -17.3237 22.6321
rtibia 45.8614
rfoot -22.8701 -11.2309
rtoes 29.716
lfemur -1.79633 5.75185 -25.1087
ltibia 58.1231
lfoot -0.474806 19.8774
ltoes 0.508406
521
root -12.6193 16.0797 -9.17156 346.175 124.087 -26.0487
lowerback 6.40389 -1.48048 -4.51769
upperback 3.89203 -2.02226 2.86172
thorax 0.710896 -1.05476 5.6242
lowerneck -25.9094 -4.66254 -8.65586
upperneck 35.3452 -3.5774 4.09436
head 17.7369 -1.67594 2.68528
rclavicle 6.20208e-014 3.18055e-015
rhumerus -48.9463 6.56655 -80.5987
rradius 49.0846
rwrist -14.4581
rhand -5.44611 -20.3035
rfingers 7.12502
rthumb 20.3647 -49.2557
lclavicle 6.20208e-014 3.18055e-015
lhumerus -46.8285 -21.8208 92.4471
lradius 73.9756
lwrist 24.2179
lhand -27.5571 -16.1989
lfingers 7.12502
lthumb -0.958109 13.7787
rfemur -30.5075 -15.5504 22.5115
rtibia 46.4264
rfoot -26.4093 -11.0278
rtoes 27.4243
lfemur -4.44143 5.94381 -22.8929
ltibia 64.2686
lfoot -2.20617 18.0184
ltoes 1.06713
522
root -12.1929 15.8608 -9.38383 346.033 123.036 -24.8335
lowerback 7.73465 -1.10713 -3.49506
upperback 3.87668 -1.48044 3.04666
thorax -0.14078 -0.736258 5.24218
lowerneck -25.8166 -5.07186 -9.21895
upperneck 35.2048 -4.08425 4.41982
head 17.72 -1.90829 2.81343
rclavicle 4.85035e-014 -7.63333e-014
rhumerus -47.2577 7.70662 -81.7939
rradius 50.3167
rwrist -14.5269
rhand -6.77781 -19.5775
rfingers 7.12502
rthumb 19.0845 -48.6612
lclavicle 4.85035e-014 -7.63333e-014
lhumerus -47.7553 -20.6231 93.59
lradius 70.1153
lwrist 23.791
lhand -28.6741 -14.7222
lfingers 7.12502
lthumb -2.037 15.2478
rfemur -27.5003 -14.015 22.9694
rtibia 47.2444
rfoot -29.0693 -11.2182
rtoes 25.2639
lfemur -7.86531 6.12351 -20.4596
ltibia 70.1653
lfoot -2.8171 16.2842
ltoes 0.819723
523
root -11.8035 15.6762 -9.62272 348.656 121.167 -20.9869
lowerback 8.55787 -0.851592 -0.905025
upperback 3.95433 -0.89827 3.86305
thorax -0.619876 -0.38923 4.59381
lowerneck -25.7815 -5.13589 -9.23226
upperneck 34.719 -3.99011 3.854
head 17.4255 -1.96613 2.55432
rclavicle -1.66979e-014 -1.145e-013
rhumerus -45.1822 9.45874 -82.6052
rradius 51.827
rwrist -14.3599
rhand -8.26423 -20.1114
rfingers 7.12502
rthumb 17.6546 -49.3299
lclavicle -1.66979e-014 -1.145e-013
lhumerus -48.2858 -18.865 94.9955
lradius 65.7065
lwrist 23.0437
lhand -29.8333 -13.094
lfingers 7.12502
lthumb -3.15649 16.8624
rfemur -25.2036 -13.0974 25.3179
rtibia 47.9586
rfoot -30.8288 -11.0549
rtoes 25.1018
lfemur -12.1993 6.38718 -16.8686
ltibia 75.5054
lfoot -3.99176 15.0861
ltoes 4.76314
524
root -11.4351 15.5182 -9.86252 351.143 118.975 -18.0663
lowerback 9.02908 -0.46868 1.36405
upperback 4.02216 -0.154484 4.28979
thorax -0.884221 0.022741 3.68952
lowerneck -26.1675 -5.20711 -9.04578
upperneck 34.3533 -4.07195 3.54245
head 17.3151 -2.03069 2.34275
rclavicle -2.22639e-014 -4.77083e-014
rhumerus -42.5014 11.1257 -83.4742
rradius 53.1252
rwrist -14.0128
rhand -10.126 -20.2987
rfingers 7.12502
rthumb 15.8623 -49.669
lclavicle -2.22639e-014 -4.77083e-014
lhumerus -48.447 -17.3013 96.1198
lradius 60.655
lwrist 21.7892
lhand -30.7743 -10.8551
lfingers 7.12502
lthumb -4.06516 19.0859
rfemur -23.7167 -12.7417 27.2288
rtibia 48.544
rfoot -32.0964 -12.5203
rtoes 17.2808
lfemur -17.4706 7.07218 -14.2789
ltibia 79.9134
lfoot -6.39533 12.3892
ltoes -4.58868
525
root -11.0329 15.4207 -10.0756 351.351 117.042 -18.2644
lowerback 9.12353 0.060618 1.49881
upperback 4.08562 0.561332 4.36782
thorax -0.908758 0.380856 3.62524
lowerneck -27.1507 -5.3803 -8.94952
upperneck 34.4462 -4.31051 3.52165
head 17.6165 -2.12395 2.25194
rclavicle 5.24792e-014 1.59028e-013
rhumerus -39.6364 12.7043 -83.9197
rradius 54.6283
rwrist -12.4948
rhand -10.8557 -20.0827
rfingers 7.12502
rthumb 15.1595 -49.5075
lclavicle 5.24792e-014 1.59028e-013
lhumerus -48.9824 -16.0976 97.3621
lradius 55.7818
lwrist 20.4752
lhand -30.1774 -10.0234
lfingers 7.12502
lthumb -3.48877 19.9278
rfemur -22.1834 -12.1531 27.3326
rtibia 48.512
rfoot -33.6039 -10.2936
rtoes 23.2957
lfemur -23.1367 7.38774 -13.942
ltibia 82.9224
lfoot -7.22625 11.5623
ltoes -3.18059
526
root -10.5898 15.3557 -10.2774 348.487 114.889 -20.88
lowerback 9.73401 0.687313 0.0971051
upperback 4.28861 1.27817 4.31647
thorax -1.09622 0.721735 4.29077
lowerneck -27.005 -5.30686 -9.17952
upperneck 33.8648 -4.31042 3.9153
head 17.2932 -2.10514 2.45439
rclavicle -3.4191e-014 -1.30403e-013
rhumerus -37.688 15.2055 -84.384
rradius 56.6976
rwrist -11.9382
rhand -11.296 -20.6423
rfingers 7.12502
rthumb 14.7353 -50.0986
lclavicle -3.4191e-014 -1.30403e-013
lhumerus -50.8924 -15.0453 99.1246
lradius 52.2701
lwrist 19.6033
lhand -28.0995 -6.79329
lfingers 7.12502
lthumb -1.48204 23.1813
rfemur -19.0191 -11.2522 26.0356
rtibia 47.7321
rfoot -34.8458 -8.07592
rtoes 26.1242
lfemur -27.2698 8.38821 -14.5834
ltibia 84.3197
lfoot -8.10948 10.5644
ltoes -2.34984
527
root -10.136 15.3364 -10.4867 349 112.872 -20.3625
lowerback 9.58746 1.19595 0.302975
upperback 4.4311 1.97526 4.56495
thorax -0.921436 1.07152 4.36397
lowerneck -27.2336 -5.49624 -9.22123
upperneck 33.6313 -4.63816 4.05267
head 17.2612 -2.22723 2.43794
rclavicle -1.35174e-014 -1.30403e-013
rhumerus -36.1221 17.0221 -84.6228
rradius 59.7456
rwrist -12.2124
rhand -11.4462 -21.1241
rfingers 7.12502
rthumb 14.5906 -50.5909
lclavicle -1.35174e-014 -1.30403e-013
lhumerus -52.6423 -14.752 101.074
lradius 49.9058
lwrist 19.2328
lhand -23.8308 -2.74921
lfingers 7.12502
lthumb 2.64081 27.2142
rfemur -15.8407 -10.5812 26.1434
rtibia 45.9573
rfoot -34.9544 -6.65249
rtoes 25.5598
lfemur -31.8842 9.28965 -14.134
ltibia 84.5003
lfoot -9.48051 9.3984
ltoes -4.55667
528
root -9.64662 15.4142 -10.693 346.539 111.154 -23.0102
lowerback 9.47533 1.88864 -0.331085
upperback 4.40298 2.79718 4.16175
thorax -0.959104 1.46477 4.21486
lowerneck -27.1674 -5.82277 -8.71752
upperneck 33.6198 -5.33132 3.92028
head 17.2754 -2.45785 2.1326
rclavicle -4.77083e-014 -3.18055e-014
rhumerus -35.0268 18.1369 -85.0594
rradius 62.7721
rwrist -13.4741
rhand -11.5182 -21.1729
rfingers 7.12502
rthumb 14.5212 -50.6447
lclavicle -4.77083e-014 -3.18055e-014
lhumerus -55.648 -15.7307 103.259
lradius 49.1064
lwrist 19.0311
lhand -19.4102 -3.99545
lfingers 7.12502
lthumb 6.90921 25.8718
rfemur -12.0536 -9.67692 24.755
rtibia 43.1634
rfoot -33.8333 -5.32542
rtoes 24.2047
lfemur -35.5172 9.96824 -15.4582
ltibia 82.7931
lfoot -10.2091 9.98519
ltoes -4.97208
529
root -9.12048 15.5508 -10.9037 345.013 109.331 -25.3167
lowerback 8.46295 2.54697 -0.779575
upperback 4.42977 3.58631 3.91613
thorax -0.446589 1.83792 4.17225
lowerneck -27.6478 -6.23996 -8.86995
upperneck 33.4027 -6.07683 4.42323
head 17.3721 -2.70479 2.2
rclavicle -1.98785e-014 9.54166e-015
rhumerus -33.9075 19.5214 -85.0489
rradius 66.0471
rwrist -15.5105
rhand -11.3784 -20.9371
rfingers 7.12502
rthumb 14.6559 -50.3992
lclavicle -1.98785e-014 9.54166e-015
lhumerus -58.5933 -16.5217 105.687
lradius 49.1252
lwrist 17.4093
lhand -16.6759 -7.51214
lfingers 7.12502
lthumb 9.5481 22.2515
rfemur -8.63057 -8.5718 23.5973
rtibia 39.476
rfoot -31.4072 -3.84385
rtoes 22.8386
lfemur -39.1588 10.7682 -16.818
ltibia 79.7957
lfoot -11.4956 9.86959
ltoes -7.56395
530
root -8.5617 15.7305 -11.1264 345.207 107.771 -25.8697
lowerback 7.48229 3.08411 -0.266413
upperback 4.09552 4.28817 3.58131
thorax -0.248038 2.18354 3.5121
lowerneck -27.5836 -6.74978 -8.81678
upperneck 33.2087 -7.08535 4.91314
head 17.3744 -3.0286 2.17323
rclavicle -3.33958e-014 -3.81667e-014
rhumerus -34.0394 20.4997 -85.3586
rradius 69.5824
rwrist -17.5229
rhand -11.5973 -20.2526
rfingers 7.12502
rthumb 14.4451 -49.7299
lclavicle -3.33958e-014 -3.81667e-014
lhumerus -62.0016 -16.7506 107.342
lradius 50.0066
lwrist 13.3951
lhand -13.3032 -9.9015
lfingers 7.12502
lthumb 12.8009 19.686
rfemur -4.85337 -7.47335 22.912
rtibia 34.9916
rfoot -27.7083 -2.55587
rtoes 21.2516
lfemur -42.1472 11.1085 -17.7458
ltibia 75.5906
lfoot -12.1205 10.7193
ltoes -8.88996
531
root -7.97487 15.9355 -11.3408 344.999 106.713 -26.9146
lowerback 6.20144 3.48147 -0.299655
upperback 3.82558 4.77135 3.38191
thorax 0.163494 2.41232 3.35668
lowerneck -27.5222 -7.36046 -9.24312
upperneck 32.8702 -8.08732 5.59269
head 17.3526 -3.38874 2.30794
rclavicle 4.21423e-014 4.77083e-014
rhumerus -34.2196 21.6847 -85.2704
rradius 72.9825
rwrist -19.6602
rhand -11.2159 -20.0742
rfingers 7.12502
rthumb 14.8125 -49.5248
lclavicle 4.21423e-014 4.77083e-014
lhumerus -64.9231 -16.2691 108.688
lradius 51.3953
lwrist 10.9611
lhand -13.0504 -11.7178
lfingers 7.12502
lthumb 13.0447 17.8543
rfemur -0.989459 -6.25153 22.0163
rtibia 29.9871
rfoot -22.7509 -1.65077
rtoes 19.3778
lfemur -44.5703 11.0456 -19.0186
ltibia 70.37
lfoot -12.6112 9.93944
ltoes -8.66232
532
root -7.35283 16.1606 -11.5431 345.548 105.995 -27.2275
lowerback 4.62592 3.84475 -0.360282
upperback 3.54104 5.21341 3.26232
thorax 0.722045 2.61992 3.33994
lowerneck -27.3594 -8.09118 -9.89826
upperneck 32.4728 -9.21989 6.42181
head 17.3369 -3.8101 2.51449
rclavicle -5.56597e-014 -4.77083e-014
rhumerus -34.8087 22.3104 -84.9964
rradius 76.1985
rwrist -21.6915
rhand -10.0475 -19.822
rfingers 7.12502
rthumb 15.9379 -49.1862
lclavicle -5.56597e-014 -4.77083e-014
lhumerus -67.4709 -15.6254 109.496
lradius 53.1441
lwrist 10.9982
lhand -11.2303 -12.0695
lfingers 7.12502
lthumb 14.7986 17.3822
rfemur 3.00691 -4.94346 21.4314
rtibia 24.2702
rfoot -16.5765 -1.56193
rtoes 18.0401
lfemur -46.3447 10.8483 -20.1347
ltibia 64.4244
lfoot -12.596 8.98083
ltoes -10.9215
533
root -6.7091 16.3775 -11.7477 346.478 105.196 -26.9934
lowerback 2.95891 4.27102 -0.174637
upperback 3.35433 5.7502 3.07602
thorax 1.46143 2.87874 3.15023
lowerneck -27.3419 -8.83337 -10.2516
upperneck 32.1559 -10.4846 7.21287
head 17.4119 -4.24555 2.61612
rclavicle 2.94201e-014 1.43125e-014
rhumerus -35.6103 22.2753 -84.7159
rradius 78.9572
rwrist -23.3784
rhand -9.55916 -18.3198
rfingers 7.12502
rthumb 16.4081 -47.6458
lclavicle 2.94201e-014 1.43125e-014
lhumerus -69.7912 -15.1857 109.928
lradius 54.8439
lwrist 10.5822
lhand -11.2166 -12.4656
lfingers 7.12502
lthumb 14.8119 16.9851
rfemur 7.19782 -3.91103 21.0163
rtibia 18.0987
rfoot -9.20793 -2.1163
rtoes 16.504
lfemur -47.3137 10.6826 -20.8793
ltibia 58.1142
lfoot -11.4771 7.58106
ltoes -14.9551
